<svg t="1710745178837" class="icon" viewBox="0 0 1024 1024" version="1.1" xmlns="http://www.w3.org/2000/svg" p-id="26739" width="200" height="200"><path d="M452 370.818c205.375 0 372-54.709 372-121.787v-63.245C824 118.708 657.375 64 452 64S80 118.708 80 185.786v63.245c0 67.078 166.625 121.787 372 121.787z" p-id="26740" fill="#ffffff"></path><path d="M452 642.268c32.062 0 63.18-1.335 92.867-3.845l6.359-2.966a21.758 21.758 0 0 0 12.559-19.383l0.021-1.322 0.345-22.322a21.759 21.759 0 0 1 11.349-18.774l19.609-10.674 112.067-61 18.284-9.953a21.76 21.76 0 0 1 20.806 0l18.284 9.954 57.366 31.229A41.865 41.865 0 0 0 824 520.281V354.625c-79.924 55.277-226.2 81.008-372 81.008S159.922 409.9 80 354.625v165.656c0 67.189 166.625 121.987 372 121.987zM486.741 906.87L464.6 896.593a21.76 21.76 0 0 1-12.6-19.736V709.789c-145.8 0-292.078-25.732-372-81.008v164.763c0 67.189 166.625 121.987 372 121.987q25.925 0 50.947-1.14z" p-id="26741" fill="#ffffff"></path><path d="M847.933 667.817V615.68l-112.067-61.005-112.068 61.005-0.806 52.137 112.874 52.137 112.067-52.137v52.405L735.866 772.09h-0.269l-111.799-52.136v-52.137L512 719.954v132.492l112.336 52.136 111.798 55.362v-0.269l111.799-55.093L960 852.445V719.954l-112.067-52.137z" p-id="26742" fill="#ffffff"></path></svg>